<svg width="18" height="26" viewBox="0 0 18 26" fill="none" xmlns="http://www.w3.org/2000/svg">
<path d="M10.3452 8.66016V22.763C10.3452 24.166 11.4826 25.3034 12.8856 25.3034H15.0796C16.4826 25.3034 17.62 24.166 17.62 22.763V8.66016H10.3452Z" fill="black"/>
<path d="M4.46252 10.1992V8.45545H5.2876V6.80524H4.46252V6.41234H6.2297V4.76209H4.46252V4.36919H6.2297V2.71898H4.46252V2.32604H5.2876V0.675829H4.46252V0H2.81226V0.675829H1.98718V2.32604H2.81226V2.71898H1.04507V4.36919H2.81226V4.76209H1.04507V6.41234H2.81226V6.80524H1.98718V8.45545H2.81226V10.1992H0.909805V12.0437H6.36492V10.1992H4.46252Z" fill="black"/>
<path d="M0 13.6941V22.7631C0 24.1662 1.13737 25.3036 2.54043 25.3036H4.73436C6.13737 25.3036 7.27479 24.1662 7.27479 22.7631V13.6941H0Z" fill="black"/>
</svg>
