<svg width="21" height="22" viewBox="0 0 21 22" fill="none" xmlns="http://www.w3.org/2000/svg">
<path d="M4.68089 0L2.05305 0.656369L0 5.44871L1.57879 6.50156L2.8811 3.8979L3.6897 4.13028L2.975 11.2488H9.98781L10.4241 7.08015L10.4668 6.696H10.6802L10.4241 4.13028L11.2351 3.8979L12.5346 6.50156L14.1138 5.44871L12.0603 0.656369L9.43293 0C9.17209 0.183537 8.85434 0.294512 8.50813 0.377033C8.06233 0.481843 7.55962 0.530691 7.05691 0.530691C6.5542 0.530691 6.05149 0.481843 5.60569 0.377033C5.25949 0.294512 4.94173 0.184011 4.68089 0V0ZM11.2351 7.54966L11.164 8.21362H19.6436L19.5725 7.54966H11.2351ZM11.0738 9.06728L9.80759 21.1133H12.7812L14.9865 10.8268H15.8211L18.0264 21.1133H21L19.7337 9.06728H11.0738Z" fill="black"/>
</svg>
