<svg width="22" height="22" viewBox="0 0 22 22" fill="none" xmlns="http://www.w3.org/2000/svg">
<path d="M10.9154 11.2961C10.4077 11.3384 9.94231 11.1269 9.43461 10.9576C6.76923 10.0692 4.06154 9.18072 1.39615 8.29226C1.22692 8.20765 1.1 8.16534 0.973076 8.03842C0.803846 7.91149 0.803846 7.74226 0.973076 7.61534C1.1 7.53072 1.26923 7.4038 1.43846 7.36149C4.31538 6.51534 7.15 5.66919 10.0269 4.78072C10.6615 4.56919 11.3385 4.56919 12.0154 4.78072C14.85 5.62688 17.6846 6.47303 20.5192 7.31919C20.6885 7.4038 20.8577 7.44611 21.0269 7.57303C21.2385 7.69995 21.2385 7.91149 21.0269 8.03842C20.9 8.12303 20.7731 8.20765 20.6038 8.24995C17.7692 9.18072 14.9346 10.1538 12.0577 11.0846C11.6769 11.2538 11.3385 11.2961 10.9154 11.2961Z" fill="black"/>
<path d="M5.28846 11.4231C4.86538 11.3385 4.78077 11.5923 4.78077 11.8038C4.78077 12.9038 4.78077 13.9615 4.78077 15.0192C4.78077 15.4 4.90769 15.6115 5.16154 15.8654C5.24615 15.95 5.37308 16.0346 5.45769 16.1192C6.13462 16.5846 6.93846 16.8808 7.74231 17.0923C9.35 17.5154 10.9577 17.6 12.6077 17.3885C13.6654 17.2615 14.7231 16.9654 15.6962 16.5423C16.1192 16.3308 16.5423 16.1192 16.8385 15.7808C17.05 15.5692 17.1346 15.3577 17.0923 15.0615C17.1346 14.0461 17.1346 12.9885 17.1346 11.9308C17.1346 11.3385 16.7115 11.4231 16.5423 11.4654C15.0615 11.9731 13.4962 12.4385 12.0154 12.9461C11.2538 13.2 10.5346 13.2 9.81539 12.9461L5.28846 11.4231Z" fill="black"/>
<path d="M19.4192 10.4499C19.2923 10.4922 19.25 10.5345 19.25 10.7038C19.25 11.6768 19.25 12.6076 19.25 13.5807C19.25 13.6653 19.2077 13.7922 19.1654 13.8768C18.9538 14.3845 18.7423 14.8922 18.5731 15.3999C18.4038 15.8653 18.4885 16.373 18.8269 16.7115C18.9115 16.8384 19.0808 16.9653 19.2077 17.0499C19.3346 17.1768 19.5462 17.2191 19.7154 17.2615C20.0115 17.3038 20.2654 17.1345 20.4769 16.9653C20.5615 16.8807 20.6885 16.7961 20.7731 16.6692C21.0269 16.3307 21.0692 15.9076 20.9846 15.5268C20.8577 14.9345 20.6038 14.4268 20.35 13.9192C20.2654 13.8345 20.2654 13.6653 20.2654 13.5807C20.2654 12.523 20.2654 11.5076 20.2654 10.4499C20.2654 10.2384 20.0962 10.2807 20.0115 10.323L19.4192 10.4499Z" fill="black"/>
</svg>
