<svg width="26" height="26" viewBox="0 0 26 26" fill="none" xmlns="http://www.w3.org/2000/svg">
<path fill-rule="evenodd" clip-rule="evenodd" d="M7.07953 14.2377C7.60089 14.8747 8.92683 17.2345 9.20834 18.4166H16.7917C17.0732 17.2354 18.3976 14.8756 18.919 14.2396C19.8121 13.1471 20.372 11.8297 20.5343 10.4392C20.6965 9.04866 20.4545 7.64147 19.8361 6.37982C19.2176 5.11812 18.2479 4.05325 17.0387 3.30785C15.8295 2.56245 14.4299 2.16685 13.0012 2.16663C11.5725 2.1664 10.1728 2.56156 8.96334 3.30658C7.75391 4.0516 6.78384 5.11617 6.16504 6.37765C5.54618 7.63914 5.30366 9.04623 5.46547 10.4368C5.62727 11.8275 6.18676 13.145 7.07953 14.2377ZM13.5417 6.49996L10.2917 11.375H12.4583V14.625L15.7083 9.74996H13.5417V6.49996Z" fill="#333333"/>
<path d="M9.20834 19.5H16.7917V20.5833H9.20834V19.5Z" fill="#333333"/>
<path d="M9.20834 21.6666H16.7917V22.75C16.7917 23.3483 16.3067 23.8333 15.7083 23.8333H10.2917C9.69334 23.8333 9.20834 23.3483 9.20834 22.75V21.6666Z" fill="#333333"/>
</svg>
