<svg width="21" height="21" viewBox="0 0 21 21" fill="none" xmlns="http://www.w3.org/2000/svg">
<path d="M4.58924 8.68628C4.59044 8.70113 4.59151 8.71591 4.59151 8.73111V15.0072H5.60594C5.99907 15.0072 6.31775 14.6885 6.31775 14.2953V9.39816C6.31775 9.00503 5.999 8.68635 5.60594 8.68635H4.58924V8.68628Z" fill="black"/>
<path d="M16.4085 8.73099C16.4085 8.71578 16.4096 8.70101 16.4108 8.68616H15.3941C15.0009 8.68616 14.6823 9.0049 14.6823 9.39796V14.2951C14.6823 14.6883 15.001 15.007 15.3941 15.007H16.4085V8.73099V8.73099Z" fill="black"/>
<path d="M19.0106 8.91173C18.6387 4.53984 14.964 1.0957 10.5 1.0957C6.03598 1.0957 2.36126 4.53984 1.98934 8.91173C0.82501 9.37791 0 10.5174 0 11.8466C0 12.8601 0.479889 13.763 1.22366 14.3418V16.4731C1.22366 17.69 2.21363 18.68 3.4305 18.68H8.70079C8.98503 19.3962 9.68404 19.9041 10.5 19.9041C11.5672 19.9041 12.4354 19.0356 12.4354 17.968C12.4354 16.9004 11.5672 16.0319 10.5 16.0319C9.68397 16.0319 8.98482 16.5399 8.70079 17.2562H3.4305C2.99869 17.2562 2.64741 16.9049 2.64741 16.4731V14.9649C2.814 14.9922 2.98483 15.007 3.15905 15.007H3.45256V8.73094C3.45256 8.71573 3.45369 8.70096 3.45482 8.68611H3.44591C3.62119 7.38474 4.14895 6.19375 4.9297 5.21269H16.0702C16.851 6.19375 17.3787 7.38474 17.554 8.68611H17.5451C17.5463 8.70096 17.5474 8.71573 17.5474 8.73094V15.007H17.8409C19.5828 15.007 20.9999 13.5891 20.9999 11.8465C21 10.5174 20.1749 9.37791 19.0106 8.91173Z" fill="black"/>
</svg>
