<svg width="21" height="21" viewBox="0 0 21 21" fill="none" xmlns="http://www.w3.org/2000/svg">
<path d="M20.4774 12.8007C19.4727 9.0902 16.6942 6.60412 14.263 7.24381C13.331 7.49985 11.8505 8.12096 10.79 8.17589C10.79 8.17589 10.79 7.02412 10.79 6.97C10.79 5.9095 9.93138 5.05012 8.88946 5.05012H6.09242C5.41638 5.05012 4.88654 4.50169 4.88654 3.82566C4.88654 3.14962 5.43415 2.60119 6.09242 2.60119H10.0776C10.4612 2.60119 10.7722 2.29023 10.7722 1.90658L10.7741 0.16156H10.0762L10.0776 1.21196C10.0776 1.90658 10.0404 1.90658 9.38296 1.90658H6.09242C5.03273 1.90658 4.19192 2.76516 4.19192 3.82566C4.19192 4.88616 5.0505 5.74473 6.09242 5.74473H8.87089C9.54692 5.74473 10.0776 6.29316 10.0776 6.97C10.0776 7.02412 10.0776 8.19446 10.0776 8.19446C9.03565 8.12096 7.57292 7.49985 6.65942 7.24381C4.24604 6.58554 1.50473 9.0902 0.517731 12.8185C0.273889 13.7398 0.161539 14.6499 0.161539 15.5077C0.161539 18.0923 1.25992 20.2515 3.0765 20.7331C3.31469 20.7987 3.55635 20.8378 3.79955 20.8378C5.41695 20.8385 7.03298 19.6532 8.15769 17.7357C8.87089 17.8819 9.63819 17.9732 10.4249 17.9732C11.2285 17.9732 11.9967 17.827 12.7276 17.6808C13.8631 19.5893 15.4806 20.7545 17.1001 20.7555C17.3551 20.7556 17.6319 20.7441 17.8823 20.679C20.3135 20.0385 21.483 16.4927 20.4774 12.8007ZM7.2975 13.1117C7.28135 13.2821 7.15696 13.4057 6.98573 13.4202C6.97442 13.421 6.96312 13.4218 6.95181 13.4218H5.56258V14.8111C5.56258 14.9936 5.41638 15.1584 5.21527 15.1584C5.20396 15.1584 5.19265 15.1576 5.18135 15.1568C5.02385 15.139 4.88735 15.0025 4.86958 14.845C4.86877 14.8337 4.86796 14.8224 4.86796 14.8111V13.4218H3.47873C3.29619 13.4218 3.13142 13.2757 3.13142 13.0745C3.13142 13.0632 3.13223 13.0519 3.13304 13.0406C3.14919 12.8694 3.2865 12.745 3.44481 12.7288C3.45612 12.728 3.46742 12.7272 3.47873 12.7272H4.86796V11.338C4.86796 11.3267 4.86877 11.3154 4.86958 11.3041C4.88412 11.132 5.00931 11.0068 5.18135 10.9923C5.19265 10.9915 5.20396 10.9907 5.21527 10.9907C5.22819 10.9907 5.24031 10.9915 5.25242 10.9923C5.25808 10.9931 5.26373 10.9939 5.26938 10.9947C5.27754 10.9959 5.28522 10.9981 5.29313 10.9998C5.29055 10.9992 5.2882 10.9987 5.28554 10.998C5.29362 10.9988 5.30169 11.0012 5.30977 11.0036C5.33158 11.0093 5.35258 11.0173 5.37196 11.0278C5.38004 11.0319 5.38812 11.0359 5.39539 11.0408C5.40265 11.0448 5.40992 11.0497 5.41719 11.0545C5.42688 11.0618 5.43577 11.069 5.44385 11.0763C5.45112 11.0828 5.45758 11.0892 5.46404 11.0957C5.47131 11.103 5.47777 11.1102 5.48342 11.1175C5.49796 11.1353 5.51088 11.1538 5.52138 11.174C5.52865 11.1886 5.53512 11.2031 5.54077 11.2185C5.54481 11.2273 5.54723 11.2362 5.54965 11.2459C5.55288 11.2556 5.55531 11.2653 5.55692 11.275C5.55854 11.2847 5.56015 11.2944 5.56096 11.3041C5.56177 11.3154 5.56258 11.3267 5.56258 11.338V12.7272H6.95181C6.96312 12.7272 6.97442 12.728 6.98573 12.7288C7.14323 12.7466 7.27973 12.8831 7.2975 13.0406C7.29831 13.0519 7.29912 13.0632 7.29912 13.0745C7.29912 13.0875 7.29831 13.0996 7.2975 13.1117ZM13.8923 15.9116C13.2678 15.9116 12.7615 15.4053 12.7615 14.7808C12.7615 14.1563 13.2678 13.65 13.8923 13.65C14.5168 13.65 15.0231 14.1563 15.0231 14.7808C15.0231 15.4053 14.5168 15.9116 13.8923 15.9116ZM13.8923 12.8423C13.2678 12.8423 12.7615 12.3361 12.7615 11.7116C12.7615 11.0871 13.2678 10.5808 13.8923 10.5808C14.5168 10.5808 15.0231 11.0871 15.0231 11.7116C15.0231 12.3361 14.5168 12.8423 13.8923 12.8423ZM16.9615 16.6385C16.337 16.6385 15.8308 16.1322 15.8308 15.5077C15.8308 14.8832 16.337 14.3769 16.9615 14.3769C17.586 14.3769 18.0923 14.8832 18.0923 15.5077C18.0923 16.1322 17.586 16.6385 16.9615 16.6385ZM16.9615 13.4885C16.337 13.4885 15.8308 12.9822 15.8308 12.3577C15.8308 11.7332 16.337 11.2269 16.9615 11.2269C17.586 11.2269 18.0923 11.7332 18.0923 12.3577C18.0923 12.9822 17.586 13.4885 16.9615 13.4885Z" fill="black"/>
</svg>
