<svg width="21" height="21" viewBox="0 0 21 21" fill="none" xmlns="http://www.w3.org/2000/svg">
<path d="M17.5875 11.0192C17.4922 10.9101 17.4114 10.7911 17.3448 10.6655C17.3121 14.0425 14.5551 16.7799 11.1705 16.7799C7.76554 16.7799 4.99536 14.0097 4.99536 10.6048C4.99536 7.19987 7.76554 4.42969 11.1705 4.42969C14.0996 4.42969 16.5589 6.47983 17.189 9.22042L17.7482 5.06333L17.7608 4.96986C16.1685 3.11023 13.8049 1.92957 11.1705 1.92957C9.11516 1.92957 7.22481 2.64849 5.73681 3.84748V3.93724V4.01671V5.77749V5.84738C5.73681 7.0235 5.12723 8.09726 4.16268 8.71082V15.5934V15.712C5.74198 17.8731 8.29479 19.2799 11.1705 19.2799C14.1922 19.2799 16.8577 17.7266 18.4114 15.3768V15.2497V11.5631C18.0962 11.4606 17.8105 11.2743 17.5875 11.0192Z" fill="black"/>
<path d="M11.1705 5.47925C8.34419 5.47925 6.04478 7.77859 6.04478 10.6049C6.04478 13.4313 8.34412 15.7306 11.1705 15.7306C13.9968 15.7306 16.2962 13.4313 16.2962 10.6049C16.2962 7.77859 13.9968 5.47925 11.1705 5.47925Z" fill="black"/>
<path d="M20.9766 1.01278C20.9766 0.56615 20.6146 0.204102 20.168 0.204102C19.763 0.204102 19.4205 0.503605 19.3665 0.904971L18.1849 9.68851C18.1538 9.91973 18.2241 10.1531 18.3776 10.3287C18.5311 10.5043 18.753 10.6049 18.9863 10.6049H19.4608V20.0264C19.4608 20.4514 19.8053 20.7959 20.2304 20.7959C20.6554 20.7959 20.9999 20.4514 20.9999 20.0264L20.9766 1.01278Z" fill="black"/>
<path d="M4.68739 1.18352C4.68739 0.893673 4.45253 0.658813 4.16268 0.658813C3.87283 0.658813 3.63797 0.893673 3.63797 1.18352V4.08684H2.8684V1.18352C2.8684 0.893673 2.63354 0.658813 2.3437 0.658813C2.05385 0.658813 1.81899 0.893673 1.81899 1.18352V4.08684H1.04942V1.18352C1.04942 0.893673 0.814557 0.658813 0.524708 0.658813C0.234859 0.658813 0 0.893673 0 1.18352V5.91751C0 6.94027 0.658823 7.81156 1.57412 8.13079V20.0263C1.57412 20.4514 1.91868 20.7959 2.3437 20.7959C2.76871 20.7959 3.11327 20.4514 3.11327 20.0263V8.13079C4.02857 7.81156 4.68739 6.94027 4.68739 5.91751V1.18352Z" fill="black"/>
</svg>
