<svg width="18" height="21" viewBox="0 0 18 21" fill="none" xmlns="http://www.w3.org/2000/svg">
<path d="M13.132 4.40005C15.332 4.15305 17.089 3.35605 17.089 1.30405C17.089 0.619047 16.1 -0.291953 14.415 0.0890472C12.74 0.467047 10.577 2.33005 9.979 3.29505C9.826 2.92805 9.464 2.67005 9.041 2.67005C8.62 2.67005 8.257 2.92705 8.103 3.29405C7.505 2.33105 5.343 0.466047 3.667 0.0890472C1.983 -0.290953 0.993999 0.620047 0.993999 1.30505C0.993999 3.35705 2.75 4.15305 4.952 4.40105C5.18 4.42505 5.397 4.44405 5.606 4.45805H1.228V20.083H7.739V4.45805H6.814C7.426 4.40905 7.873 4.27705 8.094 4.05905C8.242 4.43805 8.609 4.70805 9.04 4.70805C9.473 4.70805 9.84 4.43805 9.986 4.05905C10.208 4.27705 10.655 4.40905 11.266 4.45805H10.342V20.083H16.852V4.45805H12.475C12.686 4.44405 12.904 4.42605 13.132 4.40005ZM5.239 4.06905C3.609 3.88605 2.309 3.29705 2.309 1.77705C2.309 1.27005 3.042 0.595047 4.29 0.877047C5.741 1.20405 7.695 3.04405 7.695 3.55105C7.694 4.05805 6.716 4.23605 5.239 4.06905ZM10.389 3.55105C10.389 3.04405 12.342 1.20405 13.793 0.877047C15.039 0.595047 15.773 1.27005 15.773 1.77705C15.773 3.29705 14.473 3.88605 12.842 4.06905C11.366 4.23605 10.389 4.05805 10.389 3.55105Z" fill="black"/>
</svg>
