<svg width="16" height="23" viewBox="0 0 16 23" fill="none" xmlns="http://www.w3.org/2000/svg">
<path d="M3.25 22.875L0 20.5V5.375H2.5L2.45835 3.95835C2.45835 1.7722 4.23055 0 6.41665 0C8.0507 0 9.4535 0.99015 10.0578 2.40315C12.0203 2.63755 13.5 4.22445 13.5 6.25V7.375L14.375 7.875H16V22.875H3.25ZM1.66665 8.90625L2.97915 8.08855V21.5L3.25 21.7708V7.9167L5.5 7.875V6.375H1L1.66665 8.90625ZM7 6.375V7.875H12V7.25L11 6.375H7ZM10.5 5.375H11.75C11.5115 4.7002 11.1748 4.3635 10.5 4.125V5.375ZM4.04165 3.95835L4 5.375H5.625C5.90895 3.9761 7.00985 3.01175 8.34555 2.5724C7.91435 1.9734 7.21105 1.58335 6.41665 1.58335C5.105 1.58335 4.04165 2.64665 4.04165 3.95835ZM8.875 5.375V4.125C8.20015 4.3635 7.7385 4.70015 7.5 5.375H8.875Z" fill="black"/>
</svg>
