<svg width="22" height="22" viewBox="0 0 22 22" fill="none" xmlns="http://www.w3.org/2000/svg">
<path d="M21.5134 6.66771L19.782 20.24H13.9339L12.2096 6.59995H19.349L20.7601 1.72607L21.56 1.96719L20.2061 6.65759L21.5134 6.66771V6.66771ZM11.3828 14.52C11.3828 14.52 11.6015 12.76 8.569 12.76H3.73956C0.711478 12.76 0.925759 14.52 0.925759 14.52H11.3828ZM0.925759 18.48C0.925759 18.48 0.711478 20.24 3.73956 20.24H8.56944C11.6019 20.24 11.3832 18.48 11.3832 18.48H0.925759ZM10.9292 17.6C11.4255 17.6 11.8263 17.1098 11.8263 16.5004C11.8263 15.8875 11.4255 15.4 10.9292 15.4H1.3376C0.843479 15.4 0.439999 15.8875 0.439999 16.5004C0.439999 17.1098 0.843479 17.6 1.3376 17.6H10.9292Z" fill="black"/>
</svg>
