<svg width="21" height="21" viewBox="0 0 21 21" fill="none" xmlns="http://www.w3.org/2000/svg">
<path d="M7.781 10.383C7.117 9.422 6.722 8.2625 6.6405 8.164C7.613 7.486 9.515 6.634 9.6215 5.4115C9.757 3.832 7.081 0.53 6.568 0.5C5.164 0.515 2.5945 2.891 2.29 3.609C1.724 5.0935 2.0045 6.475 2.9775 8.475C4.2165 11.45 8.8185 17.0935 11.451 18.865C13.193 20.202 14.4655 20.727 15.985 20.41C16.6915 20.276 19.243 18.1825 19.4985 16.767C19.561 16.242 16.595 12.7615 15.061 12.6235C13.87 12.5135 12.728 14.2965 11.9095 15.168C11.828 15.064 11.13 14.5195 10.381 13.6575C9.406 12.633 8.5 11.4295 7.781 10.383Z" fill="black"/>
</svg>
