<svg width="21" height="17" viewBox="0 0 21 17" fill="none" xmlns="http://www.w3.org/2000/svg">
<path d="M19.7519 7.00727L20.4699 6.94942C20.5718 6.94109 20.6662 6.89273 20.7325 6.81493C20.7989 6.73713 20.8317 6.63623 20.8238 6.53431L20.736 5.45909C20.732 5.40867 20.7181 5.35952 20.6952 5.31446C20.6722 5.2694 20.6405 5.22931 20.602 5.1965C20.5635 5.16369 20.5189 5.1388 20.4708 5.12326C20.4227 5.10771 20.3719 5.10181 20.3215 5.10591H18.7196L16.985 1.21064C16.8563 0.960754 16.6559 0.754973 16.4096 0.619668C16.1632 0.484364 15.8821 0.425701 15.6022 0.451191H5.39444C5.11421 0.426064 4.83284 0.484858 4.58612 0.620094C4.3394 0.75533 4.13848 0.960895 4.00891 1.21064L2.27633 5.10591H0.674391C0.572576 5.098 0.47177 5.13072 0.393991 5.19689C0.316212 5.26307 0.26778 5.35733 0.259277 5.45909L0.172852 6.53431C0.164763 6.63616 0.197406 6.73707 0.263617 6.81489C0.329829 6.89271 0.424201 6.94109 0.526037 6.94942L1.24398 7.00727C0.426764 8.17399 -0.00899908 9.56519 -0.00340288 10.9896L0.158564 13.0482C0.172231 13.2417 0.23584 13.4284 0.343183 13.59C0.450527 13.7516 0.597934 13.8827 0.771023 13.9703V15.0591C0.839074 16.546 1.30727 16.546 2.34914 16.546C3.391 16.546 3.92793 16.546 3.99803 15.0591V14.0948H10.4976H16.9407V15.0578C17.0088 16.5447 17.4763 16.5447 18.5188 16.5447C19.5614 16.5447 20.0976 16.5447 20.167 15.0578V13.9689C20.3467 13.8837 20.5019 13.7546 20.6182 13.5933C20.7346 13.4321 20.8083 13.2442 20.8326 13.0468L20.9973 10.9883C21.0032 9.56451 20.5682 8.17385 19.7519 7.00727V7.00727ZM6.78337 11.6824C6.78319 11.7846 6.74257 11.8825 6.6704 11.9548C6.59822 12.0271 6.50036 12.0679 6.3982 12.0683H2.60297C2.55224 12.0683 2.502 12.0584 2.4551 12.0391C2.40821 12.0197 2.36559 11.9913 2.32969 11.9555C2.29379 11.9196 2.26531 11.8771 2.24587 11.8302C2.22644 11.7834 2.21644 11.7331 2.21644 11.6824V10.2942C2.21626 10.2434 2.22614 10.1931 2.24551 10.1461C2.26488 10.0992 2.29335 10.0565 2.32929 10.0207C2.36523 9.98479 2.40792 9.9564 2.45489 9.93711C2.50186 9.91782 2.55219 9.90803 2.60297 9.9083L6.3982 10.2166C6.50024 10.2169 6.598 10.2576 6.67016 10.3298C6.74231 10.4019 6.78302 10.4997 6.78337 10.6017V11.6824ZM3.44885 6.2519L5.31482 1.95989H15.6804L17.5457 6.2519H3.45021H3.44885ZM18.7808 11.6824C18.7808 11.7847 18.7402 11.8829 18.6678 11.9552C18.5955 12.0276 18.4973 12.0683 18.395 12.0683H14.5998C14.4975 12.0681 14.3994 12.0274 14.3271 11.955C14.2548 11.8827 14.2141 11.7847 14.2139 11.6824V10.6017C14.2144 10.4996 14.2553 10.4019 14.3276 10.3297C14.3998 10.2576 14.4977 10.2169 14.5998 10.2166L18.395 9.9083C18.4457 9.90812 18.496 9.91798 18.5429 9.93731C18.5898 9.95663 18.6324 9.98505 18.6682 10.0209C18.7041 10.0568 18.7325 10.0994 18.7518 10.1463C18.7712 10.1932 18.781 10.2434 18.7808 10.2942V11.6824Z" fill="black"/>
</svg>
