<svg width="21" height="21" viewBox="0 0 21 21" fill="none" xmlns="http://www.w3.org/2000/svg">
<path d="M17.6736 17.3527H15.7289L16.2795 19.7743C16.3956 20.2849 16.9037 20.6047 17.4143 20.4886C17.9249 20.3725 18.2448 19.8645 18.1287 19.3538L17.6736 17.3527Z" fill="black"/>
<path d="M15.3523 11.914C15.3523 11.3968 15.3513 11.4239 15.3552 11.3662L14.0663 10.7916C13.4241 10.5053 13.1361 9.84968 13.1608 9.46043L13.3658 6.23635L13.9178 9.50856C13.9619 9.76951 14.1336 9.99105 14.3753 10.0988L17.2585 11.3842C17.6093 11.5407 18.0158 11.4212 18.2293 11.1125C18.5143 10.7004 18.3497 10.1405 17.902 9.94087L15.4057 8.82791L14.9057 5.86463L15.9748 8.24365L16.1732 5.93541C16.2289 5.28713 15.7486 4.71643 15.1003 4.66072L13.0071 4.48078C12.3628 4.42539 11.7953 4.8997 11.7337 5.54205L9.82316 7.18872C9.76111 7.24219 9.70778 7.30502 9.66509 7.37488L7.84719 10.3496C7.69395 10.6004 7.69797 10.9026 7.83057 11.1427L7.41913 11.7689L5.34672 10.4071C4.99943 10.1789 4.53233 10.2761 4.30485 10.6239L0.122644 17.0195C-0.104194 17.3664 -0.00744093 17.8314 0.33898 18.059L1.70549 18.9569C1.67617 19.1207 1.67791 19.2902 1.71266 19.458C1.85795 20.1603 2.55179 20.6346 3.27523 20.4848C3.99072 20.3367 4.4501 19.6379 4.30198 18.9222C4.26741 18.7552 4.20148 18.6008 4.11144 18.4645C7.21261 13.722 6.45621 14.8752 8.64893 11.5387C8.86705 11.5025 9.06891 11.3757 9.19324 11.1722L10.9467 8.30296L11.54 7.79157C11.54 7.79157 11.2705 11.6051 11.2725 11.6175L11.8385 15.2231L10.3274 19.2294C10.1426 19.7194 10.39 20.2664 10.88 20.4512C11.3701 20.6359 11.917 20.3885 12.1018 19.8986L13.7012 15.6579C13.7542 15.5176 13.7782 15.3513 13.7507 15.1763L13.2124 11.7477L13.7126 11.7907L13.9948 12.4152C14.2181 12.1115 14.5776 11.9139 14.9825 11.9139C15.125 11.914 15.2134 11.914 15.3523 11.914ZM3.0925 19.6021C2.86004 19.6503 2.64124 19.4972 2.59531 19.2754C2.54823 19.0477 2.6943 18.8253 2.922 18.7782C3.15532 18.73 3.37344 18.8838 3.41919 19.1049C3.46631 19.3326 3.32029 19.5549 3.0925 19.6021Z" fill="black"/>
<path d="M14.5582 3.97572C15.5214 3.97572 16.3022 3.19489 16.3022 2.23169C16.3022 1.2685 15.5214 0.487671 14.5582 0.487671C13.595 0.487671 12.8142 1.2685 12.8142 2.23169C12.8142 3.19489 13.595 3.97572 14.5582 3.97572Z" fill="black"/>
<path d="M20.4506 12.5901H19.4048V11.4427C19.4048 11.2408 19.272 11.07 19.0891 11.0126C19.0668 11.1079 19.0355 11.2018 18.9948 11.2932C18.8843 11.5411 18.7129 11.7497 18.5033 11.9053V12.5901C18.4338 12.5901 17.1704 12.5901 16.9298 12.5901V12.0682L16.0284 11.6663C16.0284 11.987 16.0284 12.2734 16.0284 12.5901H14.9826C14.6791 12.5901 14.4332 12.8361 14.4332 13.1395V16.1271C14.4332 16.4306 14.6791 16.6766 14.9826 16.6766H20.4506C20.754 16.6766 21 16.4305 21 16.1271V13.1396C21 12.8306 20.7469 12.5901 20.4506 12.5901Z" fill="black"/>
</svg>
